<?xml version="1.0" encoding="utf-8"?>
<!-- Generator: Adobe Illustrator 17.0.0, SVG Export Plug-In . SVG Version: 6.00 Build 0)  -->
<!DOCTYPE svg PUBLIC "-//W3C//DTD SVG 1.1//EN" "http://www.w3.org/Graphics/SVG/1.1/DTD/svg11.dtd">
<svg version="1.1" id="Layer_1" xmlns="http://www.w3.org/2000/svg" xmlns:xlink="http://www.w3.org/1999/xlink" x="0px" y="0px"
	 width="100px" height="100px" viewBox="50 0 100 100" enable-background="new 50 0 100 100" xml:space="preserve">
<circle fill="#324A5E" cx="100" cy="50" r="50"/>
<polygon fill="#ACB3BA" points="75.208,22.317 76.059,78.475 127.109,77.683 126.99,69.129 126.257,21.545 "/>
<polygon fill="#FFFFFF" points="68.99,29.842 84.139,83.921 114.95,75.287 112.634,67.05 131.01,61.901 118.158,16.079 "/>
<polygon fill="#E6E9EE" points="114.95,75.287 131.01,61.901 112.634,67.05 "/>
<rect x="80.712" y="46.596" transform="matrix(0.9629 -0.2698 0.2698 0.9629 -11.0061 26.3272)" fill="#84DBFF" width="19.108" height="13.208"/>
<g>
	
		<rect x="112.495" y="42.819" transform="matrix(0.2698 0.9629 -0.9629 0.2698 133.384 -71.1489)" fill="#E6E9EE" width="2.218" height="19.108"/>
	
		<rect x="111.006" y="37.525" transform="matrix(0.2698 0.9629 -0.9629 0.2698 127.1983 -73.5802)" fill="#E6E9EE" width="2.218" height="19.108"/>
	
		<rect x="109.514" y="32.23" transform="matrix(0.2698 0.9629 -0.9629 0.2698 121.0111 -76.0096)" fill="#E6E9EE" width="2.218" height="19.108"/>
</g>
<rect x="97.301" y="17.957" transform="matrix(0.2698 0.9629 -0.9629 0.2698 109.0515 -65.7159)" fill="#ACB3BA" width="1.109" height="42.177"/>
<g>
	
		<rect x="113.966" y="48.118" transform="matrix(0.2698 0.9629 -0.9629 0.2698 139.5609 -68.6956)" fill="#E6E9EE" width="2.218" height="19.108"/>
	
		<rect x="115.449" y="53.391" transform="matrix(0.2698 0.9629 -0.9629 0.2698 145.7211 -66.2727)" fill="#E6E9EE" width="2.218" height="19.108"/>
	
		<rect x="92.119" y="54.221" transform="matrix(0.2698 0.9629 -0.9629 0.2698 129.4848 -43.2015)" fill="#E6E9EE" width="2.218" height="19.108"/>
	
		<rect x="93.607" y="59.514" transform="matrix(0.2698 0.9629 -0.9629 0.2698 135.6674 -40.7698)" fill="#E6E9EE" width="2.218" height="19.108"/>
</g>
<g>
	<path fill="#FF7058" d="M80.416,31.386l1.941-0.554l2.436,8.713l-1.941,0.554l-5.683-4.297l1.525,5.465l-1.941,0.554l-2.436-8.713
		l1.822-0.515l5.842,4.416L80.416,31.386z"/>
	<path fill="#FF7058" d="M91.881,28.178l0.495,1.723l-4.337,1.208l0.495,1.802l3.901-1.089l0.455,1.663l-3.901,1.089l0.515,1.802
		l4.475-1.248l0.475,1.723l-6.416,1.802l-2.436-8.713L91.881,28.178z"/>
	<path fill="#FF7058" d="M98.95,31.584l0.139-5.446l2.04-0.574l2.931,4.574l0.337-5.485l2.099-0.594l-0.594,9.564l-1.446,0.396
		l-3.604-5.525l-0.198,6.594l-1.446,0.396l-5.485-7.861l2.099-0.594L98.95,31.584z"/>
	<path fill="#FF7058" d="M111.089,24.673c-0.139,0.198-0.178,0.436-0.119,0.693c0.079,0.257,0.238,0.416,0.515,0.515
		c0.277,0.079,0.851,0.119,1.723,0.079c0.891-0.02,1.604,0.099,2.178,0.376s0.97,0.812,1.188,1.584
		c0.218,0.772,0.099,1.505-0.337,2.139c-0.455,0.653-1.149,1.109-2.099,1.386c-1.386,0.376-2.772,0.218-4.158-0.495l0.752-1.743
		c1.168,0.554,2.158,0.733,2.951,0.495c0.356-0.099,0.614-0.257,0.772-0.475c0.158-0.218,0.198-0.455,0.139-0.713
		c-0.079-0.257-0.238-0.436-0.495-0.535c-0.257-0.099-0.733-0.139-1.406-0.099c-1.089,0.04-1.901-0.059-2.495-0.317
		c-0.574-0.257-0.99-0.792-1.208-1.624c-0.238-0.832-0.119-1.545,0.356-2.158c0.475-0.614,1.149-1.05,2.04-1.287
		c0.574-0.158,1.188-0.218,1.822-0.198c0.634,0.04,1.228,0.178,1.762,0.416l-0.594,1.703c-0.911-0.356-1.782-0.436-2.574-0.198
		C111.465,24.317,111.228,24.455,111.089,24.673z"/>
</g>
</svg>
