<?xml version="1.0" encoding="utf-8"?>
<!-- Generator: Adobe Illustrator 17.0.0, SVG Export Plug-In . SVG Version: 6.00 Build 0)  -->
<!DOCTYPE svg PUBLIC "-//W3C//DTD SVG 1.1//EN" "http://www.w3.org/Graphics/SVG/1.1/DTD/svg11.dtd">
<svg version="1.1" id="Layer_1" xmlns="http://www.w3.org/2000/svg" xmlns:xlink="http://www.w3.org/1999/xlink" x="0px" y="0px"
	 width="92.656px" height="93.478px" viewBox="54.864 6.522 92.656 93.478" enable-background="new 54.864 6.522 92.656 93.478"
	 xml:space="preserve">
<g>
	<defs>
		<circle id="SVGID_1_" cx="101.192" cy="53.672" r="46.328"/>
	</defs>
	<clipPath id="SVGID_2_">
		<use xlink:href="#SVGID_1_"  overflow="visible"/>
	</clipPath>
	<rect x="61.516" y="79.771" clip-path="url(#SVGID_2_)" fill="#F9BDA0" width="81.102" height="20.172"/>
	<path clip-path="url(#SVGID_2_)" fill="#542F08" d="M82.044,26.466l15.985-3.274l0.968,22.154l-5.971,6.935l0.901,7.673
		c0,0-7.102,4.26-9.372-0.141c-2.273-4.402-3.265-31.097-3.551-31.666C80.724,27.58,82.044,26.466,82.044,26.466z"/>
	<path clip-path="url(#SVGID_2_)" fill="#3D1F03" d="M81.007,28.149c-0.283-0.569,1.038-1.682,1.038-1.682l15.985-3.274
		l0.968,22.154l-5.971,6.935l0.901,7.673"/>
	<path clip-path="url(#SVGID_2_)" fill="#542F08" d="M122.488,26.466l-15.989-3.274l-0.968,22.156l5.974,6.935l-0.901,7.673
		c0,0,7.099,4.26,9.372-0.141c2.27-4.402,3.265-31.097,3.548-31.666C123.807,27.58,122.488,26.466,122.488,26.466z"/>
	<path clip-path="url(#SVGID_2_)" fill="#3D1F03" d="M123.524,28.149c0.283-0.569-1.034-1.682-1.034-1.682l-15.989-3.274
		l-0.97,22.154l5.974,6.935l-0.901,7.673"/>
	<rect x="92.248" y="39.111" clip-path="url(#SVGID_2_)" fill="#F9BDA0" width="20.033" height="42.581"/>
	<polygon clip-path="url(#SVGID_2_)" fill="#EAA78C" points="112.281,59.672 112.281,39.116 92.248,39.116 102.42,68.104 	"/>
	<path clip-path="url(#SVGID_2_)" fill="#FCCCB9" d="M118.232,21.752c0,15.388-7.801,29.313-15.965,29.313
		c-8.161,0-15.969-13.925-15.969-29.313s7.808-17.954,15.969-17.954C110.43,3.799,118.232,6.365,118.232,21.752z"/>
	<g clip-path="url(#SVGID_2_)">
		<path fill="#F9BDA0" d="M102.266,3.799c8.164,0,15.965,2.566,15.965,17.954s-7.801,29.313-15.965,29.313"/>
		<polygon fill="#F9BDA0" points="92.831,60.986 59.565,71.227 61.269,99.944 101.522,89.75 		"/>
	</g>
	<polyline clip-path="url(#SVGID_2_)" fill="#FCCCB9" points="59.565,71.227 61.269,99.944 101.522,89.75 	"/>
	<polygon clip-path="url(#SVGID_2_)" fill="#F9BDA0" points="111.698,60.986 144.961,71.227 143.26,99.944 102.999,89.75 	"/>
	<polyline clip-path="url(#SVGID_2_)" fill="#EAA78C" points="144.961,71.227 143.26,99.944 102.999,89.75 	"/>
	<path clip-path="url(#SVGID_2_)" fill="#663D0C" d="M98.652,0.832c0,0,4.952,24.516,24.988,26.997c0,0,0.653-15.057-4.899-21.621
		c-5.555-6.561-14.156-5.751-14.156-5.751L98.652,0.832z"/>
	<path clip-path="url(#SVGID_2_)" fill="#894D0C" d="M109.801,0.844c0,0,4.04,19.208-28.899,28.127c0,0-2.51-16.183,4.044-23.117
		c6.551-6.935,18.298-5.782,18.298-5.782L109.801,0.844z"/>
	<path clip-path="url(#SVGID_2_)" fill="#663D0C" d="M103.244,0.072l6.557,0.772c0,0,4.04,19.208-28.899,28.127"/>
	<rect x="61.516" y="79.771" clip-path="url(#SVGID_2_)" fill="#22C6E0" width="81.102" height="20.172"/>
	<rect x="61.516" y="82.121" clip-path="url(#SVGID_2_)" fill="#039DC1" width="81.102" height="17.829"/>
	<polygon clip-path="url(#SVGID_2_)" fill="#037193" points="100.988,100 90.722,61.378 59.449,71.227 60.35,100 	"/>
	<polygon clip-path="url(#SVGID_2_)" fill="#0C537A" points="100.988,100 90.722,61.378 59.449,71.227 63.759,100 	"/>
	<g clip-path="url(#SVGID_2_)">
		<polygon fill="#00233F" points="100.988,100 90.722,61.378 59.449,71.227 70.575,100 		"/>
		<polygon fill="#00233F" points="103.538,100 113.809,61.378 145.08,71.227 144.179,100 		"/>
	</g>
	<path clip-path="url(#SVGID_2_)" fill="#FF5B1A" d="M74.632,97.657c0,1.295-1.048,2.343-2.34,2.343h-5.661
		c-1.295,0-2.343-1.048-2.343-2.343V60.964c0-1.295,1.048-2.343,2.343-2.343h5.661c1.292,0,2.34,1.048,2.34,2.343V97.657z"/>
	<path clip-path="url(#SVGID_2_)" fill="#D64505" d="M72.802,97.657c0,1.295-0.675,2.343-1.512,2.343h-3.657
		c-0.835,0-1.515-1.048-1.515-2.343V60.964c0-1.295,0.678-2.343,1.515-2.343h3.657c0.835,0,1.512,1.048,1.512,2.343V97.657z"/>
	<path clip-path="url(#SVGID_2_)" fill="#AA2102" d="M78.173,78.616c0,1.298-1.055,2.353-2.353,2.353H63.102
		c-1.302,0-2.353-1.055-2.353-2.353l0,0c0-1.298,1.051-2.353,2.353-2.353H75.82C77.118,76.263,78.173,77.318,78.173,78.616
		L78.173,78.616z"/>
	<path clip-path="url(#SVGID_2_)" fill="#D64505" d="M84.001,76.968c0,1.293-1.048,2.341-2.34,2.341H57.263
		c-1.295,0-2.343-1.048-2.343-2.341V65.452c0-1.297,1.048-2.347,2.343-2.347h24.398c1.292,0,2.34,1.05,2.34,2.347V76.968
		L84.001,76.968z"/>
	<path clip-path="url(#SVGID_2_)" fill="#C63205" d="M84.001,65.452v11.516c0,1.293-1.048,2.341-2.34,2.341H57.263
		c-1.295,0-2.343-1.048-2.343-2.341"/>
	<g clip-path="url(#SVGID_2_)">
		<path fill="#FF5B1A" d="M54.92,65.452c0-1.297,1.048-2.347,2.343-2.347h24.398c1.292,0,2.34,1.05,2.34,2.347"/>
	</g>
	<path clip-path="url(#SVGID_2_)" fill="#323535" d="M80.39,55.692c0,6.037-4.892,5.075-10.926,5.075
		c-6.041,0-10.933,0.963-10.933-5.075s4.892-10.93,10.933-10.93C75.498,44.762,80.39,49.654,80.39,55.692z"/>
	<path clip-path="url(#SVGID_2_)" d="M80.39,55.692c0,6.037-4.892,6.394-10.926,6.394c-6.041,0-10.933-0.356-10.933-6.394
		s4.892-8.394,10.933-8.394C75.498,47.297,80.39,49.654,80.39,55.692z"/>
	<path clip-path="url(#SVGID_2_)" fill="#C63205" d="M78.877,76.162c0,0.399-0.325,0.724-0.726,0.724H60.771
		c-0.399,0-0.726-0.324-0.726-0.724v-9.171c0-0.402,0.325-0.726,0.726-0.726h17.38c0.399,0,0.726,0.322,0.726,0.726L78.877,76.162
		L78.877,76.162z"/>
	<path clip-path="url(#SVGID_2_)" fill="#AA2102" d="M78.151,66.265c0.399,0,0.726,0.322,0.726,0.726v9.171
		c0,0.399-0.325,0.724-0.726,0.724H60.771c-0.399,0-0.726-0.324-0.726-0.724"/>
	<g clip-path="url(#SVGID_2_)">
		<path fill="#FFFFFF" d="M66.376,68.451h-4.023c-0.126,0-0.23,0.104-0.23,0.23v5.894c0,0.128,0.104,0.233,0.23,0.233h0.862
			c0.123,0,0.227-0.106,0.227-0.233v-2.472h1.455c0.13,0,0.233-0.102,0.233-0.23v-0.81c0-0.126-0.104-0.23-0.233-0.23h-1.455v-1.096
			h2.936c0.126,0,0.23-0.106,0.23-0.233V68.68C66.604,68.555,66.502,68.451,66.376,68.451z"/>
		<path fill="#FFFFFF" d="M71.231,68.486c-0.034-0.087-0.119-0.143-0.213-0.143s-0.177,0.056-0.213,0.143l-2.12,5.107
			c-0.043-0.053-0.104-0.089-0.177-0.089h-1.404v-4.822c0-0.126-0.101-0.23-0.23-0.23h-0.859c-0.126,0-0.23,0.104-0.23,0.23v5.894
			c0,0.128,0.104,0.233,0.23,0.233h2.493l0.007-0.003c0,0,0.007,0.003,0.014,0.003h0.908c0.094,0,0.177-0.06,0.213-0.143
			l0.545-1.333h1.644l0.549,1.333c0.034,0.084,0.119,0.143,0.213,0.143h0.908h0.007c0.126,0,0.23-0.106,0.23-0.233
			c0-0.046-0.014-0.09-0.039-0.126L71.231,68.486z M71.018,71.215l0.353,0.896h-0.705L71.018,71.215z"/>
		<path fill="#FFFFFF" d="M76.57,68.342h-5.388c-0.126,0-0.23,0.102-0.23,0.23v0.825c0,0.13,0.104,0.233,0.23,0.233h2.842v4.913
			c0,0.126,0.101,0.232,0.23,0.232h0.859c0.126,0,0.23-0.106,0.23-0.232V69.63h1.229c0.126,0,0.23-0.104,0.23-0.233v-0.825
			C76.8,68.443,76.696,68.342,76.57,68.342z"/>
	</g>
	<path clip-path="url(#SVGID_2_)" fill="#FFE600" d="M70.096,68.424c-0.014-0.024-0.039-0.037-0.066-0.037h-0.29
		c-0.036,0-0.066,0.022-0.077,0.053l-0.244,0.614l-0.244-0.614c-0.014-0.032-0.043-0.053-0.077-0.053h-0.29l-0.014,0.002
		c-0.003,0-0.007-0.002-0.007-0.002h-0.982c-0.046,0-0.084,0.037-0.084,0.082v0.278c0,0.044,0.036,0.085,0.084,0.085h0.266v1.053
		c0,0.044,0.039,0.084,0.084,0.084h0.29c0.043,0,0.084-0.037,0.084-0.084v-1.053h0.259c0.027,0,0.053-0.017,0.066-0.039l0.486,1.16
		c0.014,0.032,0.043,0.051,0.077,0.051c0.034,0,0.063-0.021,0.077-0.051l0.605-1.45C70.113,68.475,70.113,68.448,70.096,68.424z"/>
</g>
</svg>
