<?xml version="1.0" encoding="utf-8"?>
<!-- Generator: Adobe Illustrator 17.0.0, SVG Export Plug-In . SVG Version: 6.00 Build 0)  -->
<!DOCTYPE svg PUBLIC "-//W3C//DTD SVG 1.1//EN" "http://www.w3.org/Graphics/SVG/1.1/DTD/svg11.dtd">
<svg version="1.1" id="Layer_1" xmlns="http://www.w3.org/2000/svg" xmlns:xlink="http://www.w3.org/1999/xlink" x="0px" y="0px"
	 width="600px" height="600px" viewBox="0 0 600 600" enable-background="new 0 0 600 600" xml:space="preserve">
<path fill="#4EBFED" d="M387.102,369.79c-3.785,0-6.852-3.068-6.852-6.852V223.816c0-3.784,3.067-6.907,6.852-6.907
	c3.785,0,6.852,3.013,6.852,6.797v139.233C393.954,366.722,390.885,369.79,387.102,369.79z"/>
<polyline fill="#BAC6CC" points="319.145,223.816 319.145,262.221 280.856,262.221 280.856,223.816 "/>
<path fill="#CFDCE5" d="M340.239,558.205h-21.094V230.668h-38.289v327.537h-21.094c-17.089,0-30.945,13.854-30.945,30.945V600
	h142.366v-10.85C371.183,572.059,357.329,558.205,340.239,558.205z"/>
<g>
	<polyline fill="#BAC6CC" points="295.697,230.668 295.697,558.205 280.856,558.205 280.856,230.668 	"/>
	<path fill="#BAC6CC" d="M285.606,558.205H259.76c-17.089,0-30.945,13.854-30.945,30.945V600h25.846v-10.85
		C254.661,572.059,268.516,558.205,285.606,558.205z"/>
</g>
<polygon fill="#FCD577" points="469.35,230.661 130.65,230.661 187.834,0 412.165,0 "/>
<polygon fill="#EAC36E" points="221.107,0.013 180.888,230.673 130.65,230.673 187.835,0.013 "/>
<g>
	<polygon fill="#D3AC5F" points="228.068,0 187.848,230.661 173.939,230.661 214.145,0 	"/>
	<polygon fill="#D3AC5F" points="426.06,230.661 412.151,230.661 371.93,0 385.853,0 	"/>
	<polygon fill="#D3AC5F" points="281.063,0 267.919,230.661 254.188,230.661 267.345,0 	"/>
	<polygon fill="#D3AC5F" points="345.812,230.661 332.08,230.661 318.938,0 332.655,0 	"/>
</g>
</svg>
