<?xml version="1.0" encoding="utf-8"?>
<!-- Generator: Adobe Illustrator 17.0.0, SVG Export Plug-In . SVG Version: 6.00 Build 0)  -->
<!DOCTYPE svg PUBLIC "-//W3C//DTD SVG 1.1//EN" "http://www.w3.org/Graphics/SVG/1.1/DTD/svg11.dtd">
<svg version="1.1" id="Layer_1" xmlns="http://www.w3.org/2000/svg" xmlns:xlink="http://www.w3.org/1999/xlink" x="0px" y="0px"
	 width="100px" height="100px" viewBox="0 0 100 100" enable-background="new 0 0 100 100" xml:space="preserve">
<g id="Others">
</g>
<circle cx="50" cy="49.625" r="50"/>
<g>
	<path fill="#94A5A6" d="M46.582,80.633c-1.473,0-2.637-1.194-2.637-2.667v-9.625L18.785,48.87
		c-0.572-0.443-0.942-1.099-1.021-1.818s0.136-1.439,0.598-1.996l23.155-27.874c0.941-1.133,2.623-1.289,3.756-0.347
		c1.133,0.941,1.288,2.623,0.347,3.756l-21.391,25.75l23.98,18.582c0.653,0.505,1.009,1.284,1.009,2.109v10.933
		C49.219,79.439,48.055,80.633,46.582,80.633z"/>
</g>
<path fill="#7E8C8D" d="M39.632,27.8l5.988-7.208c0.941-1.133,0.786-2.815-0.347-3.756s-2.815-0.786-3.756,0.347l-5.511,6.634
	L39.632,27.8z"/>
<path fill="#7E8C8D" d="M28.613,49.735l-4.384-3.394l3.775-4.544c-1.127-1.442-2.79-2.445-4.687-2.706l-4.955,5.965
	c-0.462,0.556-0.679,1.277-0.599,1.996c0.079,0.719,0.446,1.375,1.019,1.818l5.526,4.277C26.15,52.62,27.693,51.375,28.613,49.735z"
	/>
<path fill="#7E8C8D" d="M48.209,64.923l-5.523-4.285c-1.571,0.923-2.75,2.423-3.268,4.208l4.527,3.495v5.3
	c0.781,0.266,1.528,0.413,2.37,0.413c1.045,0,2.122-0.225,2.903-0.627v-6.394C49.219,66.207,48.862,65.428,48.209,64.923z"/>
<path fill="#D9521E" d="M58.287,31.831L44.393,46.48c0,0,7.607-4.338,15.906-12.637c8.362-8.362,12.637-15.906,12.637-15.906
	L58.287,31.831z"/>
<circle fill="#ECF0F1" cx="58.036" cy="31.517" r="6.268"/>
<path fill="#EC7C2D" d="M58.085,18.211c-0.975,0.071-2.365-0.41-3.088-1.068L44.199,7.314c-0.723-0.659-1.881-0.631-2.572,0.06
	l-7.734,7.733c-0.691,0.692-0.719,1.849-0.06,2.572l9.829,10.798c0.659,0.723,1.139,2.113,1.068,3.088l-1.026,14.083
	c-0.071,0.975,0.437,1.208,1.128,0.516l27.852-27.852c0.692-0.692,0.459-1.199-0.516-1.128L58.085,18.211z"/>
<circle fill="#BDC3C7" cx="22.329" cy="46.223" r="6.313"/>
<circle fill="#ECF0F1" cx="22.328" cy="46.223" r="4.104"/>
<circle fill="#BDC3C7" cx="46.335" cy="66.851" r="6.313"/>
<circle fill="#ECF0F1" cx="46.335" cy="66.851" r="4.105"/>
<g>
	<g>
		<path fill="#2A3E4F" d="M53.711,84.584c0,0.001-0.001,0.002-0.002,0.002H39.846c-0.001,0-0.002-0.001-0.002-0.002v-5.66
			c0-0.001,0.001-0.002,0.002-0.002h13.863c0.001,0,0.002,0.001,0.002,0.002V84.584z"/>
	</g>
	<g>
		<path fill="#32495D" d="M65.005,86.146c0.001,0.001,0.001,0.003,0,0.003H28.376c-0.001,0-0.001-0.002,0-0.003l5.332-4.466
			c0.001-0.001,0.002-0.024,0.002-0.024h25.96c0.001,0,0.003,0.023,0.004,0.024L65.005,86.146z"/>
	</g>
	<g>
		<path fill="#2A3E4F" d="M66.797,88.1c0,0.001-0.001,0.002-0.002,0.002h-40.23c-0.001,0-0.002-0.001-0.002-0.002v-2.926
			c0-0.001,0.001-0.002,0.002-0.002h40.23c0.001,0,0.002,0.001,0.002,0.002V88.1z"/>
	</g>
</g>
<g id="SEO_x2F__Web">
</g>
<g id="Finance__x2F__Money">
</g>
<g id="E-Commerce__x2F__Shopping">
</g>
<g id="Strategy">
</g>
</svg>
